<svg xmlns="http://www.w3.org/2000/svg" width="340" height="325" viewBox="0 0 340 325">
<g>
<path d="M 320.69 322.56 L 315.50 324.98 L 340.00 325.00 L 0.00 325.00 L 0.00 0.00 L 0.02 21.50 L 2.58 17.00 C5.90,11.15 11.55,5.32 16.25,2.89 C18.31,1.83 20.00,0.74 20.00,0.48 C20.00,0.22 15.50,0.00 10.00,0.00 L 340.00 0.00 L 319.50 0.04 L 324.07 2.91 C329.67,6.43 336.53,14.07 338.18,18.61 C338.85,20.48 339.54,22.00 339.70,22.00 C339.87,22.00 340.00,17.05 340.00,11.00 L 340.00 301.61 L 337.45 306.72 C334.33,312.99 327.61,319.34 320.69,322.56 ZM 50.40 253.40 C49.45,255.87 50.63,255.41 59.89,249.65 C64.63,246.70 76.38,239.44 86.00,233.50 C95.62,227.56 105.07,221.72 107.00,220.51 C108.93,219.31 111.82,217.51 113.42,216.52 C115.03,215.54 128.22,207.36 142.74,198.36 C166.35,183.72 169.36,182.12 171.31,183.16 C173.92,184.55 243.10,225.77 251.00,230.64 C268.43,241.39 288.07,252.68 288.38,252.14 C288.68,251.58 269.31,217.36 212.16,117.50 C203.97,103.20 191.30,81.04 183.99,68.25 C176.69,55.46 170.38,45.00 169.99,45.00 C169.59,45.00 164.64,53.21 158.99,63.25 C153.34,73.29 147.48,83.53 145.97,86.00 C144.47,88.47 137.51,100.62 130.52,113.00 C123.53,125.38 116.34,137.98 114.54,141.00 C112.74,144.02 105.54,156.62 98.54,169.00 C91.54,181.38 84.35,193.98 82.56,197.00 C80.78,200.02 76.92,206.77 73.98,212.00 C71.05,217.23 64.69,228.32 59.84,236.65 C54.99,244.98 50.74,252.51 50.40,253.40 ZM 164.99 266.07 C171.33,267.99 178.57,266.30 184.91,261.41 C190.24,257.30 192.71,253.43 194.07,247.12 C197.19,232.56 186.19,219.03 171.22,219.01 C167.76,219.00 163.45,219.62 161.65,220.37 C156.76,222.41 150.93,227.95 148.86,232.49 C146.60,237.47 146.45,246.75 148.55,251.78 C151.21,258.17 157.78,263.87 164.99,266.07 ZM 0.02 302.50 L 0.00 325.00 L 12.75 324.96 C24.40,324.92 25.19,324.80 21.88,323.62 C13.84,320.75 7.46,315.23 2.65,307.00 Z" fill="rgb(81,141,133)"/>
<path d="M 0.01 313.75 L 0.02 302.50 L 2.65 307.00 C7.46,315.23 13.84,320.75 21.88,323.62 C25.19,324.80 24.40,324.92 12.75,324.96 L 0.00 325.00 L 0.01 313.75 ZM 320.69 322.56 C327.61,319.34 334.33,312.99 337.45,306.72 L 340.00 301.61 L 340.00 313.30 L 340.00 325.00 L 327.75 324.99 L 315.50 324.98 L 320.69 322.56 ZM 164.99 266.07 C157.78,263.87 151.21,258.17 148.55,251.78 C146.45,246.75 146.60,237.47 148.86,232.49 C150.93,227.95 156.76,222.41 161.65,220.37 C163.45,219.62 167.76,219.00 171.22,219.01 C186.19,219.03 197.19,232.56 194.07,247.12 C192.71,253.43 190.24,257.30 184.91,261.41 C178.57,266.30 171.33,267.99 164.99,266.07 ZM 50.40 253.40 C50.74,252.51 54.99,244.98 59.84,236.65 C64.69,228.32 71.05,217.23 73.98,212.00 C76.92,206.77 80.78,200.02 82.56,197.00 C84.35,193.98 91.54,181.38 98.54,169.00 C105.54,156.62 112.74,144.02 114.54,141.00 C116.34,137.98 123.53,125.38 130.52,113.00 C137.51,100.62 144.47,88.47 145.97,86.00 C147.48,83.53 153.34,73.29 158.99,63.25 C164.64,53.21 169.59,45.00 169.99,45.00 C170.38,45.00 176.69,55.46 183.99,68.25 C191.30,81.04 203.97,103.20 212.16,117.50 C269.31,217.36 288.68,251.58 288.38,252.14 C288.07,252.68 268.43,241.39 251.00,230.64 C243.10,225.77 173.92,184.55 171.31,183.16 C169.36,182.12 166.35,183.72 142.74,198.36 C128.22,207.36 115.03,215.54 113.42,216.52 C111.82,217.51 108.93,219.31 107.00,220.51 C105.07,221.72 95.62,227.56 86.00,233.50 C76.38,239.44 64.63,246.70 59.89,249.65 C50.63,255.41 49.45,255.87 50.40,253.40 ZM 338.18 18.61 C336.53,14.07 329.67,6.43 324.07,2.91 L 319.50 0.04 L 329.75 0.02 L 340.00 0.00 L 340.00 11.00 C340.00,17.05 339.87,22.00 339.70,22.00 C339.54,22.00 338.85,20.48 338.18,18.61 ZM 0.01 10.75 L 0.00 0.00 L 10.00 0.00 C15.50,0.00 20.00,0.22 20.00,0.48 C20.00,0.74 18.31,1.83 16.25,2.89 C11.55,5.32 5.90,11.15 2.58,17.00 L 0.02 21.50 L 0.01 10.75 Z" fill="rgb(253,254,254)"/>
</g>
</svg>